<?xml version="1.0" standalone="no"?>
<!DOCTYPE svg PUBLIC "-//W3C//DTD SVG 20010904//EN"
 "http://www.w3.org/TR/2001/REC-SVG-20010904/DTD/svg10.dtd">
<svg version="1.0" xmlns="http://www.w3.org/2000/svg"
 width="60.000000pt" height="60.000000pt" viewBox="0 0 60.000000 60.000000"
 preserveAspectRatio="xMidYMid meet">

<g transform="translate(0.000000,60.000000) scale(0.100000,-0.100000)"
fill="#000000" stroke="none">
<path d="M203 582 c-215 -77 -271 -349 -103 -506 38 -36 105 -76 126 -76 2 0
4 23 4 50 0 46 -2 50 -24 50 -15 0 -37 15 -62 42 -33 36 -36 43 -20 46 10 2
32 -9 50 -27 38 -37 50 -38 63 -9 9 20 5 24 -37 44 -72 33 -96 97 -65 171 8
19 15 50 15 68 0 43 6 47 47 30 20 -8 66 -15 103 -15 37 0 83 7 103 15 41 17
47 13 47 -30 0 -18 7 -49 15 -68 31 -75 7 -138 -66 -172 -36 -16 -45 -25 -38
-36 5 -8 9 -47 9 -86 0 -40 2 -73 4 -73 21 0 88 40 126 76 66 62 94 128 94
224 1 85 -20 142 -73 203 -72 81 -213 117 -318 79z" fill="currentColor"/>
</g>
</svg>
