<?xml version="1.0" standalone="no"?>
<!DOCTYPE svg PUBLIC "-//W3C//DTD SVG 20010904//EN"
 "http://www.w3.org/TR/2001/REC-SVG-20010904/DTD/svg10.dtd">
<svg version="1.0" xmlns="http://www.w3.org/2000/svg"
 width="128.000000pt" height="128.000000pt" viewBox="0 0 128.000000 128.000000"
 preserveAspectRatio="xMidYMid meet">

<g transform="translate(0.000000,128.000000) scale(0.100000,-0.100000)"
fill="#000000" stroke="none">
<path d="M525 899 c-156 -20 -305 -82 -434 -180 -80 -59 -97 -83 -87 -116 9
-29 162 -163 185 -163 12 0 46 19 75 43 30 23 69 51 88 62 l33 20 5 100 5 99
50 14 c33 10 99 15 195 15 96 0 162 -5 195 -15 l50 -14 5 -99 5 -100 33 -20
c19 -11 58 -39 88 -62 29 -24 64 -43 76 -43 32 1 188 150 188 180 0 46 -169
169 -305 221 -142 55 -311 77 -450 58z"/>
</g>
</svg>
